<svg width="14" height="17" viewBox="0 0 14 17" fill="none" xmlns="http://www.w3.org/2000/svg">
<path d="M7 0.518066C6.08333 0.518066 5.21875 0.695149 4.40625 1.04932C3.60417 1.40348 2.90104 1.88265 2.29688 2.48682C1.69271 3.09098 1.21354 3.79411 0.859375 4.59619C0.505208 5.40869 0.328125 6.27327 0.328125 7.18994C0.328125 8.41911 0.645833 9.58577 1.28125 10.6899C1.91667 11.7941 2.61979 12.7629 3.39062 13.5962C4.16146 14.4295 4.875 15.0962 5.53125 15.5962C6.19792 16.0962 6.55208 16.3618 6.59375 16.3931C6.66667 16.4243 6.73698 16.453 6.80469 16.479C6.8724 16.505 6.9375 16.5181 7 16.5181C7.0625 16.5181 7.1276 16.505 7.19531 16.479C7.26302 16.453 7.33333 16.4243 7.40625 16.3931C7.44792 16.3618 7.80208 16.0962 8.46875 15.5962C9.125 15.0962 9.83854 14.4295 10.6094 13.5962C11.3802 12.7629 12.0833 11.7941 12.7188 10.6899C13.3542 9.58577 13.6719 8.41911 13.6719 7.18994C13.6719 6.27327 13.4948 5.40869 13.1406 4.59619C12.7865 3.79411 12.3073 3.09098 11.7031 2.48682C11.099 1.88265 10.3958 1.40348 9.59375 1.04932C8.78125 0.695149 7.91667 0.518066 7 0.518066ZM7 15.0493C6.6875 14.8201 6.22917 14.4504 5.625 13.9399C5.03125 13.4295 4.44271 12.8254 3.85938 12.1274C3.27604 11.4295 2.76562 10.6535 2.32812 9.79932C1.89062 8.95557 1.67188 8.08577 1.67188 7.18994C1.67188 6.46077 1.8125 5.76807 2.09375 5.11182C2.375 4.46598 2.75521 3.90348 3.23438 3.42432C3.71354 2.94515 4.27604 2.56494 4.92188 2.28369C5.57812 2.00244 6.27083 1.86182 7 1.86182C7.72917 1.86182 8.42188 2.00244 9.07812 2.28369C9.72396 2.56494 10.2865 2.94515 10.7656 3.42432C11.2448 3.90348 11.625 4.46598 11.9062 5.11182C12.1875 5.76807 12.3281 6.46077 12.3281 7.18994C12.3281 8.08577 12.1094 8.95557 11.6719 9.79932C11.2344 10.6535 10.724 11.4295 10.1406 12.1274C9.55729 12.8254 8.96875 13.4295 8.375 13.9399C7.77083 14.4504 7.3125 14.8201 7 15.0493ZM7 4.51807C6.27083 4.51807 5.64323 4.78109 5.11719 5.30713C4.59115 5.83317 4.32812 6.46077 4.32812 7.18994C4.32812 7.91911 4.59115 8.54671 5.11719 9.07275C5.64323 9.5988 6.27083 9.86182 7 9.86182C7.72917 9.86182 8.35677 9.5988 8.88281 9.07275C9.40885 8.54671 9.67188 7.91911 9.67188 7.18994C9.67188 6.46077 9.40885 5.83317 8.88281 5.30713C8.35677 4.78109 7.72917 4.51807 7 4.51807ZM7 8.51807C6.63542 8.51807 6.32292 8.38786 6.0625 8.12744C5.80208 7.86702 5.67188 7.55452 5.67188 7.18994C5.67188 6.82536 5.80208 6.51286 6.0625 6.25244C6.32292 5.99202 6.63542 5.86182 7 5.86182C7.36458 5.86182 7.67708 5.99202 7.9375 6.25244C8.19792 6.51286 8.32812 6.82536 8.32812 7.18994C8.32812 7.55452 8.19792 7.86702 7.9375 8.12744C7.67708 8.38786 7.36458 8.51807 7 8.51807Z" fill="#754FFE"/>
</svg>
