<svg width="16" height="17" viewBox="0 0 16 17" fill="none" xmlns="http://www.w3.org/2000/svg">
<path d="M0 4.59014C0 4.02125 0.195556 3.54125 0.586667 3.15014C0.977778 2.75903 1.45778 2.56348 2.02667 2.56348H14.0267C14.56 2.56348 15.0222 2.75903 15.4133 3.15014C15.8044 3.54125 16 4.02125 16 4.59014V12.5901C16 13.159 15.8044 13.6301 15.4133 14.0035C15.0222 14.3768 14.5422 14.5635 13.9733 14.5635H2.02667C1.45778 14.5635 0.977778 14.3768 0.586667 14.0035C0.195556 13.6301 0 13.159 0 12.5901V4.59014ZM2.02667 3.57681C1.74222 3.57681 1.50222 3.67459 1.30667 3.87014C1.11111 4.0657 1.01333 4.3057 1.01333 4.59014V4.80348L8 9.01681L14.9867 4.80348V4.59014C14.9867 4.3057 14.8889 4.0657 14.6933 3.87014C14.4978 3.67459 14.2756 3.57681 14.0267 3.57681H2.02667ZM14.9867 5.97681L10.24 8.80348L14.9867 11.6835V5.97681ZM14.9867 12.8568L9.28 9.39014L8 10.1901L6.72 9.39014L1.01333 12.8568C1.08444 13.0701 1.20889 13.2479 1.38667 13.3901C1.56444 13.5324 1.77778 13.6035 2.02667 13.6035H14.0267C14.24 13.6035 14.4356 13.5324 14.6133 13.3901C14.7911 13.2479 14.9156 13.0701 14.9867 12.8568ZM1.01333 11.6835L5.76 8.80348L1.01333 5.97681V11.6835Z" fill="#2A00FF"/>
</svg>
