<svg width="31" height="24" viewBox="0 0 31 24" fill="none" xmlns="http://www.w3.org/2000/svg">
<path d="M29.4406 16.5C29.8156 16.5 30.1906 16.875 30.1906 17.25V18.75C30.1906 19.1719 29.8156 19.5 29.4406 19.5H27.1906C27.1906 21.9844 25.175 24 22.6906 24C20.2063 24 18.1906 21.9844 18.1906 19.5H12.1906C12.1906 21.9844 10.175 24 7.69063 24C5.20625 24 3.19063 21.9844 3.19063 19.5V13.5H10.3156C10.5031 13.5 10.6906 13.3594 10.6906 13.125V12.375C10.6906 12.1875 10.5031 12 10.3156 12H0.565625C0.33125 12 0.190625 11.8594 0.190625 11.625V10.875C0.190625 10.6875 0.33125 10.5 0.565625 10.5H11.8156C12.0031 10.5 12.1906 10.3594 12.1906 10.125V9.375C12.1906 9.1875 12.0031 9 11.8156 9H2.06563C1.83125 9 1.69063 8.85938 1.69063 8.625V7.875C1.69063 7.6875 1.83125 7.5 2.06563 7.5H13.3156C13.5031 7.5 13.6906 7.35938 13.6906 7.125V6.375C13.6906 6.1875 13.5031 6 13.3156 6H0.565625C0.33125 6 0.190625 5.85938 0.190625 5.625V4.875C0.190625 4.6875 0.33125 4.5 0.565625 4.5H3.19063V2.25C3.19063 1.03125 4.175 0 5.44063 0H17.4406C18.6594 0 19.6906 1.03125 19.6906 2.25V4.5H21.7531C22.3156 4.5 22.925 4.78125 23.3469 5.20312L27.9875 9.84375C28.4094 10.2656 28.6906 10.875 28.6906 11.4375V16.5H29.4406ZM7.69063 21.75C8.90938 21.75 9.94063 20.7656 9.94063 19.5C9.94063 18.2812 8.90938 17.25 7.69063 17.25C6.425 17.25 5.44063 18.2812 5.44063 19.5C5.44063 20.7656 6.425 21.75 7.69063 21.75ZM22.6906 21.75C23.9094 21.75 24.9406 20.7656 24.9406 19.5C24.9406 18.2812 23.9094 17.25 22.6906 17.25C21.425 17.25 20.4406 18.2812 20.4406 19.5C20.4406 20.7656 21.425 21.75 22.6906 21.75ZM26.4406 12V11.4375L21.7531 6.75H19.6906V12H26.4406Z" fill="#19CB98"/>
</svg>
