<svg width="22" height="22" viewBox="0 0 22 22" fill="none" xmlns="http://www.w3.org/2000/svg">
<path d="M0.6625 9.5V0.5H9.6625V9.5H0.6625ZM3.6625 3.5V6.5H6.6625V3.5H3.6625ZM12.6625 0.5H21.6625V9.5H12.6625V0.5ZM18.6625 6.5V3.5H15.6625V6.5H18.6625ZM0.6625 21.5V12.5H9.6625V21.5H0.6625ZM3.6625 15.5V18.5H6.6625V15.5H3.6625ZM20.1625 12.5H21.6625V18.5H17.1625V17H15.6625V21.5H12.6625V12.5H17.1625V14H20.1625V12.5ZM20.1625 20H21.6625V21.5H20.1625V20ZM17.1625 20H18.6625V21.5H17.1625V20Z" fill="#19CB98"/>
</svg>
