<svg width="16" height="16" viewBox="0 0 16 16" fill="none" xmlns="http://www.w3.org/2000/svg">
<path d="M13.6 2.34667C12.8533 1.6 11.9911 1.02222 11.0133 0.613333C10.0356 0.204444 9.03111 0 8 0C6.57778 0 5.25333 0.355556 4.02667 1.06667C2.8 1.77778 1.83111 2.73778 1.12 3.94667C0.408889 5.15556 0.0533333 6.47111 0.0533333 7.89333C0.0533333 9.31556 0.408889 10.6489 1.12 11.8933L0 16L4.21333 14.88C5.38667 15.52 6.64889 15.84 8 15.84C9.42222 15.84 10.7467 15.4844 11.9733 14.7733C13.2 14.0622 14.1689 13.1022 14.88 11.8933C15.5911 10.6844 15.9467 9.36889 15.9467 7.94667C15.9467 6.88 15.7422 5.85778 15.3333 4.88C14.9244 3.90222 14.3467 3.05778 13.6 2.34667ZM8 14.5067C6.79111 14.5067 5.67111 14.2044 4.64 13.6L4.37333 13.44L1.92 14.1333L2.56 11.68L2.4 11.4133C1.72444 10.3467 1.38667 9.2 1.38667 7.97333C1.38667 6.74667 1.68889 5.62667 2.29333 4.61333C2.89778 3.6 3.69778 2.8 4.69333 2.21333C5.68889 1.62667 6.79111 1.33333 8 1.33333C8.88889 1.33333 9.73333 1.50222 10.5333 1.84C11.3333 2.17778 12.0444 2.65778 12.6667 3.28C13.2889 3.90222 13.7689 4.61333 14.1067 5.41333C14.4444 6.21333 14.5956 7.05778 14.56 7.94667C14.56 9.12 14.2667 10.2133 13.68 11.2267C13.0933 12.24 12.2933 13.04 11.28 13.6267C10.2667 14.2133 9.17333 14.5067 8 14.5067ZM11.6267 9.6C10.88 9.20889 10.4356 8.99556 10.2933 8.96C10.1511 8.92444 10.0533 8.90667 10 8.90667C9.94667 8.90667 9.88444 8.94222 9.81333 9.01333C9.67111 9.22667 9.45778 9.49333 9.17333 9.81333C9.06667 9.92 8.92444 9.93778 8.74667 9.86667L8.64 9.81333C8.07111 9.56444 7.58222 9.25333 7.17333 8.88C6.76444 8.50667 6.4 8.05333 6.08 7.52C6.00889 7.41333 5.98222 7.33333 6 7.28C6.01778 7.22667 6.06222 7.16444 6.13333 7.09333L6.45333 6.77333C6.48889 6.70222 6.54222 6.61333 6.61333 6.50667L6.66667 6.45333C6.70222 6.34667 6.68444 6.22222 6.61333 6.08L6.02667 4.58667C5.95556 4.44444 5.89333 4.35556 5.84 4.32C5.78667 4.28444 5.70667 4.26667 5.6 4.26667H5.17333C4.96 4.26667 4.78222 4.35556 4.64 4.53333C4.17778 4.99555 3.94667 5.54667 3.94667 6.18667C3.94667 6.82667 4.23111 7.50222 4.8 8.21333V8.26667C5.12 8.72889 5.47556 9.15556 5.86667 9.54667C6.61333 10.3289 7.37778 10.88 8.16 11.2C8.48 11.3422 8.84444 11.4756 9.25333 11.6C9.66222 11.7244 10.0978 11.7511 10.56 11.68C10.7733 11.68 11.0222 11.5822 11.3067 11.3867C11.5911 11.1911 11.7778 10.9867 11.8667 10.7733C11.9556 10.56 12.0089 10.3644 12.0267 10.1867C12.0444 10.0089 12.0356 9.89333 12 9.84C11.9644 9.78667 11.8756 9.72444 11.7333 9.65333L11.6267 9.6Z" fill="#18113C"/>
</svg>
